REM DIRINDEX 1\2,1\3,1\4,1\6,1\5\7,1\5\8
REM DIRNAME cjc114,folder01,folder02,folder03,folder04,folder05,folder06,folder07
TITLE ""
FILE "DB4500_5th_5C_07.mp3" MP3
  TRACK 01 AUDIO
    TITLE "2:cjc114_3435"
    INDEX 01 00:00:00
  TRACK 02 AUDIO
    TITLE "0:"
    INDEX 01 00:01:15
  TRACK 03 AUDIO
    TITLE "3:cjc114_3436"
    INDEX 01 00:01:36
  TRACK 04 AUDIO
    TITLE "0:"
    INDEX 01 00:02:63
  TRACK 05 AUDIO
    TITLE "4:cjc114_3437"
    INDEX 01 00:03:10
  TRACK 06 AUDIO
    TITLE "0:"
    INDEX 01 00:06:16
  TRACK 07 AUDIO
    TITLE "2:cjc114_3438"
    INDEX 01 00:06:63
  TRACK 08 AUDIO
    TITLE "0:"
    INDEX 01 00:08:15
  TRACK 09 AUDIO
    TITLE "3:cjc114_3439"
    INDEX 01 00:08:38
  TRACK 10 AUDIO
    TITLE "0:"
    INDEX 01 00:10:00
  TRACK 11 AUDIO
    TITLE "4:cjc114_3440"
    INDEX 01 00:10:23
  TRACK 12 AUDIO
    TITLE "0:"
    INDEX 01 00:13:14
  TRACK 13 AUDIO
    TITLE "2:cjc114_3441"
    INDEX 01 00:13:61
  TRACK 14 AUDIO
    TITLE "0:"
    INDEX 01 00:14:66
  TRACK 15 AUDIO
    TITLE "3:cjc114_3442"
    INDEX 01 00:15:15
  TRACK 16 AUDIO
    TITLE "0:"
    INDEX 01 00:16:49
  TRACK 17 AUDIO
    TITLE "4:cjc114_3443"
    INDEX 01 00:16:69
  TRACK 18 AUDIO
    TITLE "0:"
    INDEX 01 00:19:56
  TRACK 19 AUDIO
    TITLE "2:cjc114_3444"
    INDEX 01 00:20:24
  TRACK 20 AUDIO
    TITLE "0:"
    INDEX 01 00:21:29
  TRACK 21 AUDIO
    TITLE "3:cjc114_3445"
    INDEX 01 00:21:49
  TRACK 22 AUDIO
    TITLE "0:"
    INDEX 01 00:23:18
  TRACK 23 AUDIO
    TITLE "4:cjc114_3446"
    INDEX 01 00:23:42
  TRACK 24 AUDIO
    TITLE "0:"
    INDEX 01 00:26:73
  TRACK 25 AUDIO
    TITLE "2:cjc114_3447"
    INDEX 01 00:27:43
  TRACK 26 AUDIO
    TITLE "0:"
    INDEX 01 00:28:51
  TRACK 27 AUDIO
    TITLE "3:cjc114_3448"
    INDEX 01 00:28:72
  TRACK 28 AUDIO
    TITLE "0:"
    INDEX 01 00:30:65
  TRACK 29 AUDIO
    TITLE "4:cjc114_3449"
    INDEX 01 00:31:12
  TRACK 30 AUDIO
    TITLE "0:"
    INDEX 01 00:34:24
  TRACK 31 AUDIO
    TITLE "2:cjc114_3450"
    INDEX 01 00:34:73
  TRACK 32 AUDIO
    TITLE "0:"
    INDEX 01 00:35:72
  TRACK 33 AUDIO
    TITLE "3:cjc114_3451"
    INDEX 01 00:36:19
  TRACK 34 AUDIO
    TITLE "0:"
    INDEX 01 00:37:32
  TRACK 35 AUDIO
    TITLE "4:cjc114_3452"
    INDEX 01 00:37:56
  TRACK 36 AUDIO
    TITLE "0:"
    INDEX 01 00:40:73
  TRACK 37 AUDIO
    TITLE "2:cjc114_3453"
    INDEX 01 00:41:45
  TRACK 38 AUDIO
    TITLE "0:"
    INDEX 01 00:42:57
  TRACK 39 AUDIO
    TITLE "3:cjc114_3454"
    INDEX 01 00:43:05
  TRACK 40 AUDIO
    TITLE "0:"
    INDEX 01 00:44:16
  TRACK 41 AUDIO
    TITLE "4:cjc114_3455"
    INDEX 01 00:44:38
  TRACK 42 AUDIO
    TITLE "0:"
    INDEX 01 00:46:37
  TRACK 43 AUDIO
    TITLE "2:cjc114_3456"
    INDEX 01 00:47:11
  TRACK 44 AUDIO
    TITLE "0:"
    INDEX 01 00:48:30
  TRACK 45 AUDIO
    TITLE "3:cjc114_3457"
    INDEX 01 00:48:51
  TRACK 46 AUDIO
    TITLE "0:"
    INDEX 01 00:49:63
  TRACK 47 AUDIO
    TITLE "4:cjc114_3458"
    INDEX 01 00:50:09
  TRACK 48 AUDIO
    TITLE "0:"
    INDEX 01 00:52:73
  TRACK 49 AUDIO
    TITLE "2:cjc114_3459"
    INDEX 01 00:53:43
  TRACK 50 AUDIO
    TITLE "0:"
    INDEX 01 00:54:66
  TRACK 51 AUDIO
    TITLE "3:cjc114_3460"
    INDEX 01 00:55:10
  TRACK 52 AUDIO
    TITLE "0:"
    INDEX 01 00:56:16
  TRACK 53 AUDIO
    TITLE "4:cjc114_3461"
    INDEX 01 00:56:39
  TRACK 54 AUDIO
    TITLE "0:"
    INDEX 01 00:59:71
  TRACK 55 AUDIO
    TITLE "2:cjc114_3462"
    INDEX 01 01:00:45
  TRACK 56 AUDIO
    TITLE "0:"
    INDEX 01 01:01:42
  TRACK 57 AUDIO
    TITLE "3:cjc114_3463"
    INDEX 01 01:01:64
  TRACK 58 AUDIO
    TITLE "0:"
    INDEX 01 01:02:65
  TRACK 59 AUDIO
    TITLE "4:cjc114_3464"
    INDEX 01 01:03:12
  TRACK 60 AUDIO
    TITLE "0:"
    INDEX 01 01:06:20
  TRACK 61 AUDIO
    TITLE "2:cjc114_3465"
    INDEX 01 01:06:65
  TRACK 62 AUDIO
    TITLE "0:"
    INDEX 01 01:08:11
  TRACK 63 AUDIO
    TITLE "3:cjc114_3466"
    INDEX 01 01:08:33
  TRACK 64 AUDIO
    TITLE "0:"
    INDEX 01 01:09:67
  TRACK 65 AUDIO
    TITLE "4:cjc114_3467"
    INDEX 01 01:10:16
  TRACK 66 AUDIO
    TITLE "0:"
    INDEX 01 01:13:71
  TRACK 67 AUDIO
    TITLE "2:cjc114_3468"
    INDEX 01 01:14:37
  TRACK 68 AUDIO
    TITLE "0:"
    INDEX 01 01:15:54
  TRACK 69 AUDIO
    TITLE "3:cjc114_3469"
    INDEX 01 01:16:03
  TRACK 70 AUDIO
    TITLE "0:"
    INDEX 01 01:17:45
  TRACK 71 AUDIO
    TITLE "4:cjc114_3470"
    INDEX 01 01:17:69
  TRACK 72 AUDIO
    TITLE "0:"
    INDEX 01 01:22:13
  TRACK 73 AUDIO
    TITLE "2:cjc114_3471"
    INDEX 01 01:22:56
  TRACK 74 AUDIO
    TITLE "0:"
    INDEX 01 01:24:00
  TRACK 75 AUDIO
    TITLE "3:cjc114_3472"
    INDEX 01 01:24:16
  TRACK 76 AUDIO
    TITLE "0:"
    INDEX 01 01:25:64
  TRACK 77 AUDIO
    TITLE "4:cjc114_3473"
    INDEX 01 01:26:13
  TRACK 78 AUDIO
    TITLE "0:"
    INDEX 01 01:29:60
